<?xml version="1.0" encoding="UTF-8"?>
<!-- Generator: visioncortex VTracer 0.6.3 -->
<svg version="1.1" xmlns="http://www.w3.org/2000/svg" width="1280" height="1280">
<path d="M0 0 C1.03 -0 2.06 -0.01 3.12 -0.01 C6.58 -0.02 10.03 -0.01 13.49 -0 C15.99 -0.01 18.49 -0.01 20.99 -0.02 C26.43 -0.03 31.87 -0.03 37.31 -0.02 C45.4 -0.01 53.49 -0.01 61.58 -0.02 C76.02 -0.04 90.47 -0.04 104.92 -0.03 C117.56 -0.02 130.2 -0.02 142.84 -0.02 C143.68 -0.02 144.52 -0.02 145.38 -0.02 C148.79 -0.03 152.19 -0.03 155.59 -0.03 C187.52 -0.04 219.45 -0.03 251.38 -0.01 C279.76 0 308.13 0 336.5 -0.01 C368.37 -0.03 400.24 -0.04 432.11 -0.03 C435.51 -0.03 438.91 -0.02 442.3 -0.02 C443.14 -0.02 443.98 -0.02 444.84 -0.02 C457.47 -0.02 470.11 -0.02 482.74 -0.03 C497.11 -0.04 511.48 -0.04 525.84 -0.02 C533.88 -0.01 541.92 -0.01 549.96 -0.02 C555.96 -0.03 561.96 -0.02 567.96 -0.01 C570.39 -0.01 572.83 -0.01 575.26 -0.01 C578.55 -0.02 581.85 -0.01 585.15 0 C586.57 -0.01 586.57 -0.01 588.02 -0.02 C593.88 0.03 598.21 1.01 603.57 3.38 C603.57 4.04 603.57 4.7 603.57 5.38 C604.21 5.65 604.85 5.91 605.51 6.19 C607.57 7.38 607.57 7.38 608.57 10.38 C609.23 10.38 609.89 10.38 610.57 10.38 C613.06 15.45 614.01 19.54 613.95 25.22 C613.95 25.99 613.96 26.75 613.96 27.54 C613.97 30.09 613.96 32.64 613.95 35.2 C613.95 37.05 613.95 38.9 613.96 40.75 C613.97 45.83 613.96 50.92 613.95 56 C613.94 61.49 613.95 66.97 613.96 72.46 C613.97 83.2 613.96 93.94 613.95 104.69 C613.93 117.2 613.94 129.71 613.94 142.22 C613.94 165.22 613.93 188.21 613.91 211.21 C613.89 232.2 613.88 253.19 613.89 274.17 C613.89 275.52 613.89 276.87 613.89 278.22 C613.89 279.21 613.89 279.21 613.89 280.23 C613.89 283.59 613.89 286.94 613.89 290.29 C613.89 290.95 613.89 291.61 613.89 292.3 C613.9 309.84 613.89 327.38 613.88 344.93 C613.88 347.44 613.88 349.96 613.88 352.47 C613.88 354.33 613.88 354.33 613.88 356.22 C613.87 364.94 613.88 373.66 613.88 382.38 C613.88 393.01 613.87 403.64 613.86 414.27 C613.85 419.69 613.85 425.12 613.85 430.54 C613.86 435.5 613.85 440.47 613.84 445.44 C613.84 447.23 613.84 449.03 613.84 450.82 C613.87 467.09 613.87 467.09 612.03 474.39 C611.53 476.57 611.37 478.65 611.26 480.88 C610.35 491.16 607.05 502.13 602.53 511.39 C601.47 513.6 600.62 515.84 599.76 518.13 C595.45 528.97 589.36 539.85 582.57 549.38 C581.91 549.38 581.25 549.38 580.57 549.38 C580.33 550.09 580.08 550.81 579.82 551.55 C578.44 554.69 576.73 557.02 574.57 559.69 C573.87 560.57 573.17 561.46 572.45 562.37 C571.83 563.03 571.21 563.69 570.57 564.38 C569.91 564.38 569.25 564.38 568.57 564.38 C568.24 565.37 567.91 566.36 567.57 567.38 C566.91 567.38 566.25 567.38 565.57 567.38 C565.31 568.02 565.04 568.66 564.76 569.32 C563.57 571.38 563.57 571.38 560.57 572.38 C560.57 573.04 560.57 573.7 560.57 574.38 C559.91 574.38 559.25 574.38 558.57 574.38 C558.24 575.37 557.91 576.36 557.57 577.38 C556.91 577.38 556.25 577.38 555.57 577.38 C555.57 578.04 555.57 578.7 555.57 579.38 C553.76 580.97 551.94 582.43 550.01 583.88 C549.43 584.32 548.84 584.76 548.24 585.22 C546.36 586.62 544.47 588 542.57 589.38 C541.99 589.81 541.4 590.24 540.79 590.68 C527.83 600.03 513.52 606.77 498.57 612.38 C497.74 612.72 496.9 613.06 496.04 613.42 C493.38 614.45 490.69 615.15 487.91 615.81 C486.25 616.21 484.6 616.65 482.95 617.1 C465.32 621.86 447.72 621.66 429.59 621.61 C425.81 621.6 422.03 621.6 418.25 621.61 C411.72 621.61 405.19 621.6 398.66 621.59 C389.21 621.57 379.77 621.57 370.33 621.57 C355 621.56 339.67 621.55 324.35 621.53 C309.47 621.51 294.59 621.5 279.71 621.49 C278.8 621.49 277.88 621.49 276.93 621.49 C272.32 621.48 267.71 621.48 263.1 621.48 C224.92 621.46 186.75 621.42 148.57 621.38 C149.25 617.38 149.81 615.64 153.01 613.07 C153.63 612.55 154.25 612.04 154.88 611.51 C156.57 610.38 156.57 610.38 158.57 610.38 C158.57 609.72 158.57 609.06 158.57 608.38 C160.22 606.79 160.22 606.79 162.39 605 C164.64 603.14 166.48 601.51 168.21 599.15 C168.66 598.57 169.11 597.98 169.57 597.38 C170.23 597.38 170.89 597.38 171.57 597.38 C171.84 596.79 172.11 596.21 172.39 595.61 C173.59 593.35 174.91 591.57 176.57 589.63 C177.09 589.01 177.61 588.4 178.14 587.77 C179.57 586.38 179.57 586.38 181.57 586.38 C181.88 585.76 182.19 585.14 182.51 584.5 C183.2 583.13 183.89 581.75 184.57 580.38 C185.23 580.38 185.89 580.38 186.57 580.38 C186.81 579.86 187.05 579.34 187.29 578.8 C188.99 575.59 191.02 572.62 193.07 569.63 C193.48 569.03 193.88 568.42 194.3 567.8 C195.34 566.29 196.45 564.83 197.57 563.38 C198.23 563.38 198.89 563.38 199.57 563.38 C199.66 562.83 199.75 562.29 199.84 561.73 C200.8 558.65 202.42 556.45 204.26 553.82 C208.1 548.17 211.45 542.44 214.57 536.38 C214.89 535.77 215.2 535.17 215.53 534.55 C219.68 526.56 223.44 518.6 226.55 510.14 C227.37 507.93 228.24 505.78 229.2 503.63 C232.92 494.83 234.99 485.73 237.1 476.45 C237.52 474.61 237.95 472.78 238.39 470.95 C241.29 458.76 243.75 446.8 244.36 434.27 C244.57 431.38 244.57 431.38 245.06 429.46 C251.81 402.16 248.82 370.43 247.32 342.5 C247.27 341.47 247.27 341.47 247.21 340.42 C246.85 333.55 246.45 326.69 246.01 319.83 C245.92 318.42 245.92 318.42 245.83 316.99 C245.58 314.4 245.09 311.93 244.57 309.38 C244.35 305.97 244.19 302.56 244.06 299.14 C243.81 294.08 243.05 289.25 242.09 284.28 C241.01 278.25 240.41 272.15 239.72 266.07 C239.04 260.34 238.03 254.96 236.57 249.38 C236.32 247.96 236.08 246.54 235.86 245.12 C235.75 244.41 235.64 243.7 235.53 242.97 C235.31 241.53 235.1 240.09 234.89 238.65 C234.06 233.41 232.3 229.91 229.57 225.38 C229.57 224.39 229.57 223.4 229.57 222.38 C228.91 222.38 228.25 222.38 227.57 222.38 C226.14 220.88 226.14 220.88 224.57 218.94 C222.43 216.23 222.43 216.23 219.57 214.38 C219.57 213.72 219.57 213.06 219.57 212.38 C203.38 205.8 193.58 204.07 176.57 209.38 C172.97 210.42 169.35 211.44 165.73 212.46 C157.74 214.73 149.94 217.27 142.19 220.28 C138.36 221.76 134.56 222.99 130.57 224 C126.59 225.02 123.26 226.41 119.65 228.35 C117.28 229.52 114.88 230.38 112.39 231.25 C107.07 233.13 102.04 235.41 96.94 237.82 C93.6 239.36 90.23 240.78 86.82 242.19 C79.97 245.1 73.47 248.53 66.92 252.06 C61.89 254.76 56.79 257.3 51.66 259.81 C48.84 261.21 46.2 262.63 43.57 264.38 C42.58 264.38 41.59 264.38 40.57 264.38 C40.57 265.04 40.57 265.7 40.57 266.38 C38.92 266.71 37.27 267.04 35.57 267.38 C35.57 268.04 35.57 268.7 35.57 269.38 C34.36 269.96 34.36 269.96 33.12 270.55 C32.06 271.07 30.99 271.59 29.89 272.13 C28.83 272.64 27.77 273.15 26.69 273.67 C23.52 275.28 23.52 275.28 20.87 277.58 C18.57 279.38 18.57 279.38 15.57 279.38 C15.57 280.04 15.57 280.7 15.57 281.38 C13.31 282.9 11.04 284.3 8.7 285.69 C0.71 290.54 -6.84 295.87 -14.37 301.4 C-15.05 301.9 -15.73 302.39 -16.43 302.91 C-17.77 303.89 -19.1 304.88 -20.44 305.88 C-25.21 309.38 -25.21 309.38 -27.43 309.38 C-28.65 306.93 -28.55 305.36 -28.56 302.62 C-28.56 301.62 -28.57 300.61 -28.57 299.57 C-28.57 298.45 -28.57 297.33 -28.57 296.18 C-28.58 295 -28.58 293.82 -28.58 292.6 C-28.59 289.32 -28.6 286.03 -28.6 282.75 C-28.6 279.2 -28.61 275.66 -28.62 272.12 C-28.64 263.57 -28.65 255.01 -28.66 246.45 C-28.67 242.42 -28.67 238.4 -28.68 234.37 C-28.69 220.98 -28.71 207.58 -28.72 194.19 C-28.72 190.72 -28.72 187.24 -28.72 183.76 C-28.72 182.9 -28.72 182.04 -28.72 181.15 C-28.73 167.15 -28.76 153.16 -28.79 139.16 C-28.82 124.8 -28.84 110.43 -28.84 96.07 C-28.85 88 -28.85 79.94 -28.88 71.87 C-28.9 65 -28.91 58.13 -28.9 51.26 C-28.9 47.75 -28.9 44.25 -28.92 40.74 C-28.93 36.94 -28.93 33.14 -28.91 29.34 C-28.92 28.23 -28.94 27.13 -28.95 25.99 C-28.88 18.19 -27.38 12.85 -22.3 6.88 C-20.43 5.38 -20.43 5.38 -18.43 5.38 C-18.43 4.72 -18.43 4.06 -18.43 3.38 C-12.07 0.57 -6.9 -0.05 0 0 Z " fill="#1C2E4E" transform="translate(347.42616271972656,403.6224765777588)"/>
<path d="M0 0 C0.76 0 1.52 0 2.3 0.01 C3.1 0.01 3.9 0 4.73 0 C7.46 -0 10.19 0 12.92 0.01 C14.89 0.01 16.86 0 18.82 0 C24.29 -0 29.75 0 35.21 0 C41.13 0.01 47.06 0 52.98 0 C63.38 -0 73.77 -0 84.17 -0 C95.33 0 106.5 0 117.66 0 C118.71 0 118.71 0 119.79 0 C122.66 0 125.52 -0 128.39 -0 C155.11 -0.01 181.84 -0.01 208.57 -0 C209.76 -0 209.76 -0 210.97 -0 C211.76 -0 212.56 -0 213.37 -0 C237.53 -0 261.69 -0 285.85 -0 C287.46 -0 289.08 -0 290.7 -0 C297.19 -0 303.68 -0 310.17 -0 C328.33 -0 346.48 -0 364.63 -0 C365.45 -0 366.28 -0 367.13 -0 C393.49 -0 419.84 -0 446.19 -0 C447.48 -0 447.48 -0 448.79 -0 C462.67 0 476.56 0 490.45 0 C545.54 0.01 600.62 0.01 655.71 0 C669.59 0 683.47 -0 697.36 -0 C698.21 -0 699.07 -0 699.95 -0 C726.27 -0 752.6 -0 778.92 -0 C780.16 -0 780.16 -0 781.42 -0 C799.56 -0 817.69 -0 835.82 -0 C842.3 -0 848.79 -0 855.28 -0 C856.89 -0 858.51 -0 860.12 -0 C884.27 0 908.43 -0 932.58 -0 C933.37 -0 934.17 -0 934.98 -0 C935.77 -0 936.57 -0 937.38 -0 C964.03 -0.01 990.67 -0.01 1017.32 -0 C1020.18 0 1023.04 0 1025.89 0 C1026.59 0 1027.3 0 1028.02 0 C1039.15 0 1050.29 0 1061.42 -0 C1072.35 -0 1083.28 -0 1094.22 0 C1100.07 0 1105.92 0.01 1111.78 0 C1117.09 -0 1122.41 0 1127.72 0.01 C1129.64 0.01 1131.57 0.01 1133.49 0 C1136.08 -0 1138.66 0 1141.25 0.01 C1142.01 0 1142.77 0 1143.55 0 C1148.66 0.02 1148.66 0.02 1149.77 1.13 C1150.22 5.29 1149.4 7.22 1146.9 10.51 C1143.8 14.71 1140.84 18.97 1137.96 23.32 C1137.11 24.6 1136.26 25.89 1135.41 27.17 C1134.76 28.14 1134.76 28.14 1134.1 29.13 C1132.75 31.18 1131.38 33.22 1130.02 35.25 C1129.57 35.92 1129.12 36.6 1128.66 37.29 C1127.8 38.57 1126.94 39.84 1126.09 41.12 C1124.34 43.73 1122.66 46.33 1121.11 49.06 C1120.45 50.09 1120.45 50.09 1119.77 51.13 C1119.11 51.13 1118.45 51.13 1117.77 51.13 C1117.4 52.22 1117.4 52.22 1117.02 53.32 C1115.65 56.41 1114.05 58.64 1111.77 61.13 C1111.11 61.13 1110.45 61.13 1109.77 61.13 C1109.77 61.79 1109.77 62.45 1109.77 63.13 C1109.11 63.13 1108.45 63.13 1107.77 63.13 C1107.44 64.12 1107.11 65.11 1106.77 66.13 C1106.11 66.13 1105.45 66.13 1104.77 66.13 C1104.77 66.79 1104.77 67.45 1104.77 68.13 C1102.52 69.83 1100.27 71.4 1097.9 72.95 C1096.87 73.62 1096.87 73.62 1095.82 74.31 C1087.52 79.68 1079.4 83.74 1069.77 86.13 C1068.57 86.47 1067.37 86.81 1066.13 87.16 C1058.99 88.72 1051.7 88.41 1044.43 88.39 C1042.75 88.39 1041.08 88.39 1039.4 88.4 C1034.79 88.41 1030.19 88.4 1025.58 88.4 C1020.57 88.39 1015.56 88.4 1010.54 88.4 C1001.76 88.41 992.98 88.41 984.19 88.41 C971.13 88.41 958.06 88.41 945 88.42 C920.99 88.44 896.98 88.44 872.98 88.44 C869.57 88.43 866.17 88.43 862.77 88.43 C862.1 88.43 861.42 88.43 860.72 88.43 C845.75 88.43 830.78 88.44 815.8 88.44 C812.38 88.44 808.96 88.44 805.54 88.44 C804.17 88.44 802.8 88.44 801.43 88.44 C800.75 88.44 800.07 88.44 799.37 88.44 C797.99 88.44 796.61 88.44 795.24 88.44 C756.2 88.45 717.15 88.46 678.11 88.45 C677.03 88.45 677.03 88.45 675.92 88.45 C667.86 88.45 659.8 88.45 651.74 88.45 C651.01 88.45 650.28 88.45 649.53 88.45 C643.48 88.45 643.48 88.45 640.7 88.45 C594.14 88.44 547.59 88.45 501.03 88.47 C489.3 88.47 477.57 88.48 465.84 88.48 C465.12 88.48 464.4 88.48 463.65 88.48 C441.39 88.49 419.13 88.5 396.87 88.5 C396.17 88.5 395.47 88.5 394.75 88.5 C379.4 88.5 364.06 88.5 348.72 88.5 C343.23 88.5 337.74 88.5 332.25 88.5 C330.88 88.5 329.52 88.5 328.15 88.49 C306.39 88.49 284.63 88.5 262.87 88.51 C240.34 88.52 217.81 88.52 195.29 88.51 C182.3 88.51 169.31 88.51 156.32 88.52 C147.65 88.53 138.98 88.53 130.3 88.51 C125.36 88.51 120.42 88.51 115.47 88.52 C110.97 88.53 106.48 88.53 101.98 88.51 C100.36 88.51 98.75 88.51 97.13 88.52 C87.96 88.56 79.6 87.92 70.77 85.13 C69.83 84.84 68.89 84.55 67.93 84.25 C56.37 80.55 44.46 73.65 35.77 65.13 C35.77 64.47 35.77 63.81 35.77 63.13 C35.11 63.13 34.45 63.13 33.77 63.13 C31.83 61.02 31.83 61.02 29.65 58.26 C28.93 57.35 28.2 56.45 27.45 55.52 C25.77 53.13 25.77 53.13 25.77 51.13 C25.11 51.13 24.45 51.13 23.77 51.13 C22.4 49.25 22.4 49.25 20.77 46.57 C17.92 41.95 14.99 37.39 11.96 32.88 C11.54 32.26 11.13 31.63 10.69 30.99 C9.83 29.7 8.97 28.41 8.1 27.12 C6.74 25.08 5.38 23.03 4.02 20.98 C3.57 20.3 3.12 19.63 2.66 18.93 C1.8 17.64 0.94 16.35 0.09 15.06 C-1.54 12.6 -3.18 10.19 -4.99 7.87 C-6.64 5.54 -6.53 3.92 -6.23 1.13 C-4.5 -0.59 -2.3 0.01 0 0 Z " fill="#1C2E4E" transform="translate(68.22510150074959,1064.867406162899)"/>
<path d="M0 0 C2.88 10.99 4.96 21.55 5.72 32.89 C5.97 35.61 6.36 38.15 6.94 40.81 C9.42 52.37 10.24 64.03 10.66 75.82 C10.83 80.31 11.22 84.57 12 89 C13.14 102.03 13.11 115.12 13.12 128.19 C13.13 128.99 13.13 129.79 13.13 130.62 C13.15 139.21 13.04 147.78 12.55 156.36 C12.5 157.41 12.5 157.41 12.44 158.47 C12.21 162.07 11.75 165.48 11 169 C10.83 171.69 10.68 174.37 10.56 177.06 C10.19 184.17 9.35 191.01 8 198 C7.77 199.28 7.54 200.55 7.31 201.87 C5.85 210 4.18 218.03 2 226 C1.82 226.65 1.64 227.3 1.46 227.97 C-1.1 237.28 -4.04 246.18 -8 255 C-8.33 255.77 -8.65 256.55 -8.99 257.35 C-11.6 263.45 -14.76 269.21 -18 275 C-18.85 276.54 -19.71 278.08 -20.56 279.62 C-21.37 281.08 -22.19 282.54 -23 284 C-23.94 285.69 -24.88 287.37 -25.81 289.06 C-26.54 290.38 -27.27 291.69 -28 293 C-28.66 293 -29.32 293 -30 293 C-30 293.99 -30 294.98 -30 296 C-30.66 296 -31.32 296 -32 296 C-32.31 296.78 -32.62 297.57 -32.94 298.38 C-34 301 -34 301 -35 303 C-35.66 303 -36.32 303 -37 303 C-37.25 303.72 -37.5 304.44 -37.75 305.19 C-39.12 308.28 -40.72 310.51 -43 313 C-43.66 313 -44.32 313 -45 313 C-45.4 313.87 -45.4 313.87 -45.81 314.75 C-47.03 317.06 -48.3 319.02 -50 321 C-50.66 321 -51.32 321 -52 321 C-52 321.66 -52 322.32 -52 323 C-53.37 324.62 -53.37 324.62 -55 326 C-55.66 326 -56.32 326 -57 326 C-57 326.66 -57 327.32 -57 328 C-59.46 330.55 -62.27 332.74 -65 335 C-66.33 336.11 -66.33 336.11 -67.69 337.24 C-74.73 343 -74.73 343 -77 343 C-77 343.66 -77 344.32 -77 345 C-78.37 346.13 -78.37 346.13 -80.3 347.36 C-81 347.81 -81.71 348.26 -82.43 348.73 C-83.58 349.45 -83.58 349.45 -84.75 350.19 C-85.53 350.68 -86.31 351.18 -87.12 351.69 C-88.69 352.68 -90.27 353.67 -91.85 354.66 C-93.62 355.76 -95.38 356.88 -97.13 358 C-122.28 373.48 -152.94 379.87 -182 373 C-185.38 372.11 -188.69 371.11 -192 370 C-193.2 369.61 -194.39 369.22 -195.62 368.81 C-196.8 368.41 -196.8 368.41 -198 368 C-198 366.02 -198 364.04 -198 362 C-197.34 362 -196.68 362 -196 362 C-195.74 361.43 -195.48 360.86 -195.21 360.27 C-193.9 357.82 -192.38 355.84 -190.62 353.69 C-187.69 349.97 -185.23 346.18 -183 342 C-182.53 341.18 -182.05 340.36 -181.57 339.51 C-177.97 333.18 -175.34 326.88 -173 320 C-172.48 318.66 -171.96 317.33 -171.44 316 C-163.08 293.47 -161.24 263.96 -169 241 C-171.27 228.25 -162.95 216.6 -156.75 206.12 C-156.22 205.23 -155.69 204.33 -155.14 203.4 C-154.38 202.15 -154.38 202.15 -153.61 200.88 C-153.16 200.13 -152.7 199.39 -152.23 198.61 C-151.83 198.08 -151.42 197.55 -151 197 C-150.34 197 -149.68 197 -149 197 C-148.54 195.82 -148.54 195.82 -148.06 194.62 C-147 192 -147 192 -146 190 C-145.34 190 -144.68 190 -144 190 C-143.73 189.42 -143.46 188.83 -143.19 188.23 C-141.99 185.97 -140.66 184.19 -139 182.25 C-138.48 181.64 -137.97 181.02 -137.44 180.39 C-136 179 -136 179 -134 179 C-133.73 178.36 -133.46 177.72 -133.19 177.06 C-132 175 -132 175 -129 174 C-129 173.34 -129 172.68 -129 172 C-123.52 167 -123.52 167 -121 167 C-121 166.34 -121 165.68 -121 165 C-119.66 163.84 -119.66 163.84 -117.78 162.57 C-117.1 162.11 -116.41 161.64 -115.7 161.16 C-114.98 160.67 -114.25 160.19 -113.5 159.69 C-112.8 159.21 -112.11 158.74 -111.39 158.25 C-99.4 150.14 -87.51 143.26 -73.62 139 C-66.13 136.67 -60.27 134.01 -55.84 127.22 C-53.83 121.89 -53.72 114.09 -55.9 108.82 C-57.08 107.08 -57.08 107.08 -59 105 C-59 104.34 -59 103.68 -59 103 C-59.76 102.71 -60.53 102.42 -61.31 102.12 C-64 101 -64 101 -67 99 C-77.68 97.31 -86.44 100.82 -96 105 C-97.03 105.44 -98.05 105.88 -99.11 106.34 C-101.76 107.51 -104.38 108.74 -107 110 C-107.77 110.35 -108.54 110.71 -109.33 111.07 C-123.13 117.62 -136 126.5 -147.71 136.26 C-150 138 -150 138 -152 138 C-152.33 138.99 -152.66 139.98 -153 141 C-153.66 141 -154.32 141 -155 141 C-155 141.66 -155 142.32 -155 143 C-156.68 144.62 -156.68 144.62 -158.88 146.44 C-161.46 148.58 -163.11 150.17 -165 153 C-165.66 153 -166.32 153 -167 153 C-167.33 153.99 -167.66 154.98 -168 156 C-168.66 156 -169.32 156 -170 156 C-170.27 156.57 -170.54 157.14 -170.81 157.73 C-172.04 160.08 -173.43 162.12 -175 164.25 C-175.52 164.96 -176.03 165.66 -176.56 166.39 C-177.04 166.92 -177.51 167.45 -178 168 C-178.66 168 -179.32 168 -180 168 C-180.27 168.72 -180.54 169.44 -180.81 170.19 C-182 173 -183.27 175.48 -185 178 C-185.66 178 -186.32 178 -187 178 C-187.08 178.62 -187.17 179.24 -187.25 179.88 C-188 182 -188 182 -190.05 183.13 C-190.69 183.42 -191.34 183.71 -192 184 C-192.58 183.16 -192.58 183.16 -193.18 182.3 C-193.74 181.5 -194.3 180.7 -194.88 179.88 C-195.5 178.98 -196.13 178.08 -196.78 177.15 C-198.4 174.85 -200.04 172.56 -201.69 170.29 C-202.15 169.66 -202.6 169.03 -203.07 168.39 C-203.97 167.14 -204.88 165.89 -205.8 164.65 C-209 160.22 -209 160.22 -209 158 C-209.66 158 -210.32 158 -211 158 C-212.95 155.88 -212.95 155.88 -215.12 153.12 C-215.85 152.22 -216.57 151.32 -217.32 150.38 C-219 148 -219 148 -219 146 C-219.66 146 -220.32 146 -221 146 C-222.62 144.62 -222.62 144.62 -224 143 C-224 142.34 -224 141.68 -224 141 C-224.66 141 -225.32 141 -226 141 C-227.62 139.62 -227.62 139.62 -229 138 C-229 137.34 -229 136.68 -229 136 C-229.66 136 -230.32 136 -231 136 C-231.75 134.44 -231.75 134.44 -232 132 C-229.37 126.3 -225.56 121.33 -221 117 C-220.34 117 -219.68 117 -219 117 C-218.76 116.44 -218.53 115.88 -218.28 115.3 C-216.71 112.48 -214.79 110.52 -212.5 108.25 C-211.71 107.45 -210.91 106.65 -210.09 105.83 C-208 104 -208 104 -206 104 C-206 103.34 -206 102.68 -206 102 C-204.45 100.58 -202.83 99.24 -201.19 97.94 C-200.19 97.14 -199.19 96.34 -198.16 95.52 C-197.64 95.11 -197.12 94.7 -196.58 94.27 C-193.17 91.53 -189.85 88.67 -186.51 85.85 C-184.06 84.04 -181.87 82.98 -179 82 C-179 81.34 -179 80.68 -179 80 C-176.88 78.48 -176.88 78.48 -174 76.75 C-170.53 74.61 -167.2 72.46 -164 69.94 C-160.25 67.06 -156.28 64.89 -152.1 62.69 C-148.6 60.78 -145.21 58.71 -141.81 56.62 C-134.75 52.32 -127.47 48.59 -120.04 45 C-117.77 43.89 -115.53 42.75 -113.29 41.61 C-107.51 38.71 -101.61 36.13 -95.69 33.56 C-88.98 30.64 -82.29 27.71 -75.69 24.56 C-70.82 22.28 -65.89 20.55 -60.77 18.93 C-58.25 18.08 -55.9 17.12 -53.5 16 C-46.07 12.58 -38.19 10.35 -30.38 8 C-26.44 6.8 -22.62 5.5 -18.81 3.94 C-5.08 -1.71 -5.08 -1.71 0 0 Z " fill="#1C2E4E" transform="translate(543,650)"/>
<path d="M0 0 C1.56 0.18 1.56 0.18 3.14 0.37 C4.8 0.58 4.8 0.58 6.49 0.8 C7.61 0.94 8.73 1.07 9.89 1.22 C33.02 4.16 33.02 4.16 37.8 6.55 C39.02 6.65 40.23 6.75 41.49 6.86 C46.6 7.36 51.42 8.72 56.34 10.1 C59.66 11.01 62.88 11.81 66.3 12.17 C70.83 12.66 74.95 13.78 79.15 15.52 C81.91 16.59 84.61 17.3 87.49 17.98 C95.5 19.95 103.05 22.11 110.54 25.59 C112.83 26.56 115.09 27.26 117.49 27.92 C136.22 33.32 154.36 43.8 170.99 53.8 C172.65 54.79 172.65 54.79 174.34 55.81 C175.56 56.67 175.56 56.67 176.8 57.55 C176.8 58.21 176.8 58.87 176.8 59.55 C177.51 59.78 178.21 60.02 178.94 60.27 C182.3 61.77 184.77 63.7 187.61 66.05 C188.59 66.84 189.56 67.63 190.57 68.45 C191.31 69.14 192.04 69.84 192.8 70.55 C192.8 71.21 192.8 71.87 192.8 72.55 C193.46 72.55 194.12 72.55 194.8 72.55 C194.8 73.21 194.8 73.87 194.8 74.55 C195.79 74.88 196.78 75.21 197.8 75.55 C197.8 76.21 197.8 76.87 197.8 77.55 C198.46 77.55 199.12 77.55 199.8 77.55 C201.75 79.66 201.75 79.66 203.93 82.42 C205.01 83.78 205.01 83.78 206.12 85.16 C207.8 87.55 207.8 87.55 207.8 89.55 C208.46 89.55 209.12 89.55 209.8 89.55 C211.52 91.7 213.11 93.85 214.68 96.11 C215.33 97.02 215.33 97.02 215.99 97.96 C218.86 102.03 221.37 106.2 223.8 110.55 C224.78 112.15 225.75 113.76 226.74 115.36 C231.46 123.24 235.13 130.98 237.9 139.75 C238.63 142.03 239.45 144.21 240.36 146.42 C244.41 157.21 245.28 168.19 245.18 179.61 C245.19 180.87 245.2 182.13 245.21 183.42 C245.16 199.16 241.06 215.53 231.8 228.55 C229.65 230.29 229.65 230.29 227.8 231.55 C225.18 228.09 223.53 224.99 222.18 220.86 C220.23 215.2 217.59 210.02 214.8 204.73 C214.16 203.52 214.16 203.52 213.51 202.27 C211.64 198.78 209.76 195.4 207.49 192.16 C205.8 189.55 205.8 189.55 205.8 186.55 C205.14 186.55 204.48 186.55 203.8 186.55 C203.33 185.64 202.85 184.73 202.36 183.8 C199.6 178.9 196.07 174.55 192.63 170.12 C190.8 167.55 190.8 167.55 190.8 165.55 C190.14 165.55 189.48 165.55 188.8 165.55 C187.11 163.68 187.11 163.68 185.24 161.23 C184.62 160.43 184 159.63 183.36 158.81 C181.8 156.55 181.8 156.55 180.8 153.55 C180.14 153.55 179.48 153.55 178.8 153.55 C178.8 152.89 178.8 152.23 178.8 151.55 C177.81 151.22 176.82 150.89 175.8 150.55 C175.8 149.89 175.8 149.23 175.8 148.55 C175.14 148.55 174.48 148.55 173.8 148.55 C171.18 146.17 171.18 146.17 168.8 143.55 C168.8 142.89 168.8 142.23 168.8 141.55 C167.81 141.22 166.82 140.89 165.8 140.55 C165.8 139.89 165.8 139.23 165.8 138.55 C165.14 138.55 164.48 138.55 163.8 138.55 C163.8 137.89 163.8 137.23 163.8 136.55 C163.18 136.24 162.56 135.93 161.93 135.61 C160.55 134.92 159.18 134.23 157.8 133.55 C157.8 132.89 157.8 132.23 157.8 131.55 C157.18 131.24 156.56 130.93 155.93 130.61 C154.55 129.92 153.18 129.23 151.8 128.55 C151.8 127.89 151.8 127.23 151.8 126.55 C151.29 126.31 150.78 126.07 150.25 125.83 C146.9 124.08 143.74 122.08 140.55 120.05 C139.58 119.44 139.58 119.44 138.58 118.82 C136.95 117.79 135.37 116.67 133.8 115.55 C133.8 114.89 133.8 114.23 133.8 113.55 C132.81 113.55 131.82 113.55 130.8 113.55 C130.8 112.89 130.8 112.23 130.8 111.55 C130.23 111.43 129.65 111.32 129.06 111.21 C126.55 110.47 124.81 109.41 122.61 107.98 C116.02 103.95 109.1 100.73 102.06 97.57 C100.56 96.89 99.05 96.2 97.55 95.51 C85.2 89.6 85.2 89.6 71.8 89.55 C69.19 90.66 67.16 91.94 64.8 93.55 C64.14 93.55 63.48 93.55 62.8 93.55 C62.51 94.12 62.22 94.7 61.93 95.3 C60.8 97.55 60.8 97.55 59.75 99.26 C57.65 104.31 58.3 110.2 58.8 115.55 C60.28 119.14 60.28 119.14 62.8 121.55 C63.48 122.41 64.16 123.28 64.86 124.17 C68.29 126.94 71.36 127.94 75.51 129.32 C82.2 131.81 88.48 135.25 94.8 138.55 C95.83 139.08 96.86 139.61 97.92 140.15 C103.35 143.02 108.39 146.21 113.36 149.81 C116.56 152.09 119.86 154.19 123.18 156.29 C123.72 156.7 124.25 157.12 124.8 157.55 C124.8 158.21 124.8 158.87 124.8 159.55 C125.67 159.95 125.67 159.95 126.55 160.36 C128.84 161.57 130.8 162.92 132.86 164.48 C133.53 164.99 134.21 165.49 134.9 166.01 C136.67 167.44 138.3 168.83 139.8 170.55 C139.8 171.21 139.8 171.87 139.8 172.55 C140.44 172.82 141.08 173.08 141.74 173.36 C143.8 174.55 143.8 174.55 144.8 177.55 C145.79 177.88 146.78 178.21 147.8 178.55 C147.8 179.21 147.8 179.87 147.8 180.55 C148.46 180.55 149.12 180.55 149.8 180.55 C149.8 181.21 149.8 181.87 149.8 182.55 C150.46 182.55 151.12 182.55 151.8 182.55 C153.61 184.63 155.31 186.73 156.99 188.92 C157.73 189.88 157.73 189.88 158.48 190.85 C161.89 195.28 165.17 199.78 168.32 204.39 C169.62 206.28 170.98 208.1 172.36 209.92 C175.83 214.76 178.21 220.21 180.8 225.55 C181.99 227.88 183.17 230.21 184.36 232.55 C195.74 255.3 195.74 255.3 195.49 263.6 C194.21 267.23 191.07 268.46 187.8 270.17 C162.32 281.88 135.53 284.71 108.74 275.09 C92.47 268.92 78.32 259.34 64.8 248.55 C63.95 247.88 63.95 247.88 63.08 247.2 C61.62 246.03 60.2 244.79 58.8 243.55 C58.8 242.89 58.8 242.23 58.8 241.55 C57.81 241.22 56.82 240.89 55.8 240.55 C55.8 239.89 55.8 239.23 55.8 238.55 C55.14 238.55 54.48 238.55 53.8 238.55 C53.8 237.89 53.8 237.23 53.8 236.55 C53.16 236.28 52.52 236.01 51.86 235.73 C49.8 234.55 49.8 234.55 48.8 231.55 C47.81 231.22 46.82 230.89 45.8 230.55 C45.8 229.89 45.8 229.23 45.8 228.55 C45.14 228.55 44.48 228.55 43.8 228.55 C38.97 223.87 34.43 218.21 30.8 212.55 C30.8 211.89 30.8 211.23 30.8 210.55 C30.14 210.55 29.48 210.55 28.8 210.55 C27.96 209.11 27.13 207.68 26.3 206.23 C25.84 205.43 25.37 204.63 24.89 203.81 C23.8 201.55 23.8 201.55 23.8 198.55 C23.14 198.55 22.48 198.55 21.8 198.55 C12.14 177.6 5.29 157.43 0.39 134.92 C-0.11 132.55 -0.11 132.55 -1.2 130.55 C-1.38 129.03 -1.52 127.51 -1.64 125.98 C-1.94 122.66 -2.37 119.48 -3.14 116.23 C-5.46 106.27 -6.46 96.37 -6.86 86.17 C-7.03 81.87 -7.47 77.79 -8.2 73.55 C-9.36 59.73 -9.31 45.84 -9.32 31.98 C-9.33 30.68 -9.33 30.68 -9.33 29.35 C-9.35 19.7 -9.26 10.15 -8.2 0.55 C-4.96 -0.53 -3.35 -0.4 0 0 Z " fill="#1C2E4E" transform="translate(93.19921875,744.453125)"/>
<path d="M0 0 C1.23 -0 2.45 -0.01 3.72 -0.01 C5.1 -0.01 6.48 -0 7.86 -0 C9.32 -0 10.77 -0 12.23 -0 C16.27 -0.01 20.31 -0.01 24.36 -0 C28.74 -0 33.12 -0 37.5 -0.01 C45.2 -0.01 52.89 -0.01 60.59 -0.01 C72.03 -0 83.47 -0.01 94.91 -0.01 C115.34 -0.01 135.76 -0.01 156.19 -0.01 C174.07 -0.01 191.94 -0.01 209.82 -0.01 C211 -0.01 212.19 -0.01 213.41 -0.01 C218.21 -0.01 223.02 -0.01 227.82 -0.01 C272.93 -0.01 318.05 -0.01 363.16 -0 C403.28 0 443.39 -0 483.51 -0.01 C528.54 -0.01 573.57 -0.01 618.59 -0.01 C623.39 -0.01 628.19 -0.01 632.98 -0.01 C634.16 -0.01 635.34 -0.01 636.56 -0.01 C654.43 -0.01 672.3 -0.01 690.17 -0.01 C710.48 -0.01 730.79 -0.01 751.1 -0.01 C762.48 -0 773.86 -0 785.24 -0.01 C792.82 -0.01 800.41 -0.01 808 -0 C812.33 -0 816.66 -0 820.99 -0.01 C824.92 -0.01 828.86 -0.01 832.79 -0 C834.21 -0 835.63 -0 837.06 -0 C838.97 -0.01 840.89 -0 842.8 0 C843.87 0 844.93 0 846.03 0 C848.4 0.13 848.4 0.13 849.4 1.13 C849.68 5.33 849.63 9.54 849.65 13.75 C849.68 15.52 849.68 15.52 849.71 17.32 C849.74 23.7 849.53 28.5 846.4 34.13 C845.74 34.13 845.08 34.13 844.4 34.13 C844.17 34.89 843.95 35.65 843.71 36.44 C842.08 39.79 840.73 40.51 837.4 42.13 C834.59 42.5 834.59 42.5 831.45 42.5 C829.65 42.51 829.65 42.51 827.81 42.52 C826.47 42.52 825.14 42.51 823.81 42.5 C822.38 42.51 820.96 42.51 819.54 42.52 C815.61 42.53 811.68 42.52 807.75 42.51 C803.48 42.5 799.22 42.51 794.95 42.52 C787.47 42.53 779.98 42.53 772.5 42.52 C761.37 42.51 750.24 42.52 739.11 42.53 C719.23 42.54 699.36 42.54 679.48 42.53 C662.09 42.53 644.7 42.52 627.31 42.53 C625.58 42.53 625.58 42.53 623.81 42.53 C619.14 42.53 614.46 42.53 609.78 42.53 C565.88 42.54 521.97 42.53 478.07 42.52 C439.04 42.5 400 42.5 360.97 42.52 C317.15 42.53 273.33 42.54 229.5 42.53 C224.83 42.53 220.17 42.53 215.5 42.53 C214.35 42.53 213.2 42.53 212.01 42.53 C194.63 42.52 177.24 42.53 159.86 42.53 C140.1 42.54 120.34 42.54 100.58 42.52 C89.51 42.52 78.44 42.52 67.37 42.53 C59.99 42.53 52.61 42.53 45.22 42.52 C41.01 42.51 36.8 42.51 32.58 42.52 C28.75 42.53 24.93 42.52 21.1 42.51 C19.72 42.5 18.34 42.51 16.96 42.51 C15.09 42.52 13.22 42.51 11.35 42.5 C10.31 42.5 9.28 42.5 8.21 42.5 C4.94 42.06 3.02 41.1 0.4 39.13 C0.4 38.47 0.4 37.81 0.4 37.13 C-0.26 37.13 -0.92 37.13 -1.6 37.13 C-6.57 29.25 -7.27 22.75 -6.97 13.56 C-6.96 12.38 -6.95 11.19 -6.93 9.97 C-6.76 0 -6.76 0 0 0 Z " fill="#1C2E4E" transform="translate(218.59892082214355,1193.874650835991)"/>
<path d="M0 0 C1.85 0.05 1.85 0.05 3.73 0.1 C9.97 0.34 15.88 0.86 21.98 2.23 C24.52 2.79 27.03 3.05 29.62 3.25 C33.96 3.58 33.96 3.58 35.06 4.69 C36.41 4.97 37.77 5.21 39.12 5.44 C57.08 8.9 73.93 16.28 90.06 24.69 C91.09 25.22 92.11 25.74 93.17 26.29 C99.5 29.63 105.28 33.48 111.06 37.69 C111.91 38.28 112.76 38.88 113.64 39.49 C129.79 50.89 147.02 65.09 158.06 81.69 C158.06 82.35 158.06 83.01 158.06 83.69 C158.72 83.69 159.38 83.69 160.06 83.69 C162.36 86.25 163.06 87.17 163.06 90.69 C163.72 90.69 164.38 90.69 165.06 90.69 C166.58 92.74 166.58 92.74 168.31 95.56 C168.94 96.58 169.56 97.59 170.21 98.64 C170.82 99.64 171.43 100.65 172.06 101.69 C172.81 102.87 172.81 102.87 173.57 104.08 C181.18 116.32 186.87 129.06 191.39 142.71 C192.1 144.78 192.86 146.83 193.63 148.88 C196.58 156.66 198.55 164.51 200.06 172.69 C200.23 173.42 200.4 174.14 200.58 174.89 C201.15 178.21 201.21 181.35 201.22 184.72 C201.23 185.41 201.23 186.1 201.24 186.81 C201.25 189.08 201.26 191.35 201.27 193.62 C201.27 194.79 201.27 194.79 201.27 195.99 C201.29 200.13 201.3 204.28 201.3 208.43 C201.31 212.67 201.33 216.92 201.36 221.16 C201.38 224.46 201.38 227.75 201.39 231.05 C201.39 232.61 201.4 234.17 201.41 235.74 C201.53 250.54 198.93 263.77 194.5 277.94 C194.2 278.94 193.89 279.95 193.58 280.98 C191.33 288.29 191.33 288.29 189.06 291.69 C188.69 292.9 188.32 294.12 187.94 295.38 C184.26 306.66 177.99 317.05 171.94 327.19 C171.45 328.01 170.96 328.84 170.45 329.68 C163.88 340.53 163.88 340.53 160.06 344.69 C159.4 344.69 158.74 344.69 158.06 344.69 C157.85 345.38 157.64 346.07 157.42 346.79 C155.65 350.56 153.18 353.09 150.31 356.06 C149.21 357.22 148.12 358.38 147.02 359.54 C146.5 360.09 145.98 360.64 145.44 361.2 C143.88 362.88 142.43 364.64 141 366.44 C137.78 370.28 133.86 373.27 129.94 376.38 C127.84 378.07 125.81 379.78 123.79 381.56 C119.71 385.08 115.33 388.11 110.88 391.12 C110.03 391.7 109.19 392.27 108.32 392.86 C92.82 403.3 76.58 411.23 59.06 417.69 C58.19 418.04 57.32 418.4 56.43 418.76 C53.79 419.8 51.11 420.46 48.35 421.12 C45.82 421.75 43.32 422.47 40.81 423.19 C28.9 426.42 16.75 427.41 4.49 428.47 C2.46 428.65 0.43 428.87 -1.59 429.11 C-11.56 430.13 -27.75 431.28 -36.94 426.69 C-36.48 418.1 -35.72 409.72 -34.41 401.21 C-33.63 395.39 -33.28 389.55 -32.94 383.69 C-28.59 382.6 -24.4 382.61 -19.95 382.7 C-18.36 382.71 -16.77 382.73 -15.18 382.75 C-12.7 382.78 -10.23 382.81 -7.75 382.86 C7.81 383.14 22.12 381.2 37.06 376.69 C38.05 376.41 39.04 376.14 40.06 375.86 C53.68 371.94 65.99 366.06 78.06 358.69 C79.22 358.07 80.37 357.45 81.56 356.81 C86.19 354.22 90.31 350.77 94.49 347.52 C97.06 345.69 97.06 345.69 99.06 345.69 C99.06 345.03 99.06 344.37 99.06 343.69 C104.54 338.69 104.54 338.69 107.06 338.69 C107.33 338.05 107.6 337.41 107.88 336.75 C109.06 334.69 109.06 334.69 112.06 333.69 C112.75 332.36 113.41 331.03 114.06 329.69 C115.62 327.55 117.27 325.66 119.06 323.69 C119.72 323.69 120.38 323.69 121.06 323.69 C121.34 323.1 121.63 322.51 121.92 321.9 C122.97 319.87 124.1 318.08 125.42 316.22 C125.87 315.57 126.33 314.92 126.79 314.26 C127.27 313.57 127.76 312.89 128.25 312.19 C132.87 305.54 137.18 298.8 141.06 291.69 C141.52 290.85 141.98 290.01 142.46 289.15 C145.29 283.76 147.32 278.3 149.16 272.5 C149.91 270.16 150.73 267.9 151.62 265.62 C161.37 239.88 164.56 198.68 154.06 172.69 C153.57 170.59 153.12 168.49 152.69 166.38 C151.65 161.72 150.4 157.85 148.09 153.7 C146.87 151.3 146.05 148.87 145.19 146.31 C143.51 141.54 141.32 137.48 138.62 133.22 C137.01 130.6 135.6 127.92 134.19 125.19 C131.11 119.46 127.24 114.64 123.06 109.69 C119.06 104.93 119.06 104.93 119.06 102.69 C118.4 102.69 117.74 102.69 117.06 102.69 C115.62 101.18 115.62 101.18 113.94 99.12 C110.84 95.48 107.56 92.37 103.91 89.29 C102.06 87.69 102.06 87.69 99.38 84.94 C97.13 82.58 97.13 82.58 94.25 81 C93.53 80.57 92.81 80.13 92.06 79.69 C92.06 79.03 92.06 78.37 92.06 77.69 C91.5 77.42 90.94 77.16 90.37 76.89 C87.85 75.58 85.55 74.07 83.19 72.5 C76.73 68.36 69.98 65 63.06 61.69 C61.98 61.15 60.89 60.61 59.77 60.05 C52.06 56.32 44.34 53.85 36.06 51.69 C35.18 51.42 34.31 51.16 33.4 50.88 C19.01 46.57 4.75 45.41 -10.19 45.44 C-10.87 45.44 -11.55 45.44 -12.24 45.44 C-20.55 45.45 -20.55 45.45 -28.8 46.26 C-29.84 46.4 -30.87 46.54 -31.94 46.69 C-33.48 45.14 -33.06 43.7 -33.07 41.55 C-33.07 40.67 -33.07 39.8 -33.08 38.89 C-33.07 37.94 -33.07 36.98 -33.07 36 C-33.07 35.03 -33.07 34.05 -33.07 33.05 C-33.07 30.99 -33.07 28.93 -33.07 26.87 C-33.06 23.7 -33.07 20.53 -33.07 17.37 C-33.07 15.37 -33.07 13.37 -33.07 11.38 C-33.07 10.42 -33.07 9.47 -33.08 8.48 C-33.07 7.61 -33.07 6.73 -33.07 5.82 C-33.07 5.05 -33.07 4.27 -33.06 3.47 C-32.94 1.69 -32.94 1.69 -31.94 0.69 C-21.34 -0.64 -10.65 -0.33 0 0 Z " fill="#1C2E4E" transform="translate(1034.9375,468.3125)"/>
<path d="M0 0 C1.08 0 1.08 0 2.18 0.01 C2.88 -0.01 3.59 -0.02 4.31 -0.04 C9.08 -0.04 12.24 0.82 16.43 3.32 C16.43 3.98 16.43 4.64 16.43 5.32 C17.01 5.51 17.58 5.69 18.18 5.88 C22.8 8.84 25.26 15.11 26.43 20.32 C26.27 29.83 21.52 37.4 15.66 44.63 C14.23 46.42 14.23 46.42 13.43 49.32 C12.77 49.32 12.11 49.32 11.43 49.32 C11.2 50 10.97 50.67 10.74 51.37 C9.08 55.11 6.84 58.23 4.49 61.57 C-2.81 72.38 -4.75 81.28 -3.57 94.32 C-2.67 97.95 -1.34 101.04 0.43 104.32 C0.85 105.12 1.27 105.93 1.7 106.75 C3.35 109.79 5.08 112.76 6.91 115.69 C16.05 131.57 16.58 155.97 12.04 173.55 C8.03 186.05 0.14 196.98 -7.35 207.57 C-9.64 210.85 -11.85 214.18 -14.07 217.51 C-14.5 218.16 -14.94 218.81 -15.38 219.47 C-17.62 222.81 -17.62 222.81 -19.57 226.32 C-20.23 226.32 -20.89 226.32 -21.57 226.32 C-21.84 226.96 -22.11 227.6 -22.38 228.26 C-23.57 230.32 -23.57 230.32 -26.57 231.32 C-26.57 231.98 -26.57 232.64 -26.57 233.32 C-31.08 235.92 -34.37 236.73 -39.57 236.7 C-40.75 236.71 -41.92 236.71 -43.13 236.72 C-46.87 236.29 -49.33 235.19 -52.57 233.32 C-52.57 232.66 -52.57 232 -52.57 231.32 C-53.15 231.12 -53.73 230.91 -54.32 230.7 C-58.91 227.89 -60.72 223.61 -62.01 218.57 C-63.1 212.04 -61.68 206.54 -58.06 201.02 C-57.03 199.66 -55.97 198.32 -54.88 197.01 C-53.36 195.24 -53.36 195.24 -52.57 192.32 C-51.91 192.32 -51.25 192.32 -50.57 192.32 C-50.34 191.64 -50.12 190.96 -49.88 190.26 C-48.48 187.13 -46.76 184.68 -44.69 181.97 C-43.38 180.2 -43.38 180.2 -42.57 177.32 C-41.91 177.32 -41.25 177.32 -40.57 177.32 C-40.34 176.68 -40.12 176.04 -39.88 175.38 C-38.75 172.75 -37.5 170.42 -36.07 167.95 C-31.46 159.67 -30.35 151.4 -31.96 142.04 C-33.57 136.47 -36.61 131.65 -39.51 126.68 C-50.98 106.93 -53.23 85.36 -47.57 63.32 C-46.16 59.18 -44.49 55.25 -42.57 51.32 C-42.24 50.64 -41.92 49.96 -41.58 49.26 C-40.93 47.93 -40.26 46.62 -39.57 45.32 C-38.91 45.32 -38.25 45.32 -37.57 45.32 C-37.4 44.45 -37.4 44.45 -37.22 43.56 C-36.52 41.17 -35.6 39.58 -34.2 37.52 C-33.71 36.8 -33.23 36.08 -32.72 35.33 C-32.2 34.57 -31.67 33.8 -31.13 33.01 C-30.04 31.39 -28.94 29.78 -27.84 28.16 C-27.02 26.95 -27.02 26.95 -26.17 25.71 C-24.69 23.49 -23.23 21.26 -21.8 19.01 C-17.66 12.57 -13.85 6.9 -7.57 2.32 C-5.06 -0.19 -3.44 0.04 0 0 Z " fill="#1C2E4E" transform="translate(764.5703125,41.677734375)"/>
<path d="M0 0 C18.77 -0.65 18.77 -0.65 26.64 6.36 C30.26 10.73 32.18 16.49 32.44 22.12 C31.57 29.84 28.58 34.86 24 41 C23.67 41.99 23.34 42.98 23 44 C22.34 44 21.68 44 21 44 C20.77 44.67 20.54 45.35 20.3 46.04 C18.66 49.78 16.49 52.96 14.19 56.31 C13.28 57.65 12.38 58.99 11.48 60.34 C10.09 62.39 8.7 64.43 7.3 66.48 C1.71 74.9 0.56 84.52 2.46 94.42 C4 99.56 6.61 103.86 9.45 108.38 C12.03 112.73 14.03 117.34 16 122 C16.34 122.74 16.69 123.48 17.04 124.25 C18.41 128.17 19 132.15 19.62 136.25 C19.76 137.06 19.89 137.87 20.03 138.7 C21.34 147.07 21.32 154.91 19.81 163.25 C19.68 163.98 19.55 164.71 19.42 165.46 C17.67 174.56 14.19 182.77 10 191 C9.34 191 8.68 191 8 191 C7.88 191.58 7.77 192.16 7.65 192.76 C6.95 195.16 6.03 196.74 4.63 198.8 C4.14 199.52 3.65 200.25 3.15 200.99 C2.63 201.76 2.1 202.52 1.56 203.31 C0.47 204.92 -0.62 206.54 -1.71 208.15 C-2.26 208.96 -2.81 209.77 -3.38 210.6 C-4.91 212.86 -6.41 215.13 -7.91 217.41 C-8.36 218.09 -8.81 218.77 -9.27 219.48 C-10.11 220.75 -10.95 222.03 -11.79 223.32 C-15.57 229.04 -15.57 229.04 -18 231 C-18.66 231 -19.32 231 -20 231 C-20 231.66 -20 232.32 -20 233 C-24.51 235.6 -27.8 236.41 -33 236.38 C-34.18 236.38 -35.35 236.39 -36.56 236.4 C-40.3 235.97 -42.76 234.87 -46 233 C-46 232.34 -46 231.68 -46 231 C-46.96 230.6 -46.96 230.6 -47.94 230.19 C-50 229 -50 229 -51 226 C-51.66 226 -52.32 226 -53 226 C-55.78 219.5 -57.22 213.86 -55 207 C-52.22 201.2 -49.05 195.02 -45 190 C-44.34 190 -43.68 190 -43 190 C-43 189.01 -43 188.02 -43 187 C-42.34 187 -41.68 187 -41 187 C-40.77 186.32 -40.55 185.64 -40.31 184.94 C-38.91 181.81 -37.19 179.36 -35.12 176.65 C-33.81 174.88 -33.81 174.88 -33 172 C-32.34 172 -31.68 172 -31 172 C-30.9 171.46 -30.79 170.93 -30.69 170.38 C-30 168 -30 168 -28.5 165.06 C-24.56 157.02 -24.83 146.36 -27.06 137.81 C-28.71 133.03 -31.42 129.11 -34.22 124.93 C-41.47 112.97 -43.45 100.25 -43.44 86.56 C-43.44 85.84 -43.44 85.12 -43.44 84.38 C-43.37 64.59 -37.59 49.29 -25.3 33.72 C-23.64 31.52 -22.38 29.19 -21.06 26.78 C-19.84 24.73 -18.45 22.89 -17 21 C-14.29 17.48 -12.14 13.89 -10 10 C-9.34 9.01 -8.68 8.02 -8 7 C-7.34 7 -6.68 7 -6 7 C-6 6.34 -6 5.68 -6 5 C-4.02 3.64 -2.02 2.3 0 1 C0 0.67 0 0.34 0 0 Z " fill="#1C2E4E" transform="translate(545,42)"/>
<path d="M0 0 C271.92 0 543.84 0 824 0 C824 0.33 824 0.66 824 1 C552.08 1 280.16 1 0 1 C0 0.67 0 0.34 0 0 Z " fill="#FBFCFD" transform="translate(228,1237)"/>
<path d="M0 0 C0.33 0 0.66 0 1 0 C1 15.51 1 31.02 1 47 C0.67 47 0.34 47 0 47 C0 31.49 0 15.98 0 0 Z " fill="#FBFCFD" transform="translate(1237,659)"/>
<path d="" fill="#1C2E4E" transform="translate(0,0)"/>
</svg>
