<?xml version="1.0" encoding="UTF-8"?>
<!-- Generator: visioncortex VTracer 0.6.3 -->
<svg version="1.1" xmlns="http://www.w3.org/2000/svg" width="1280" height="956">
<path d="M0 0 C25.5 -0.02 51.01 -0.04 76.51 -0.05 C88.35 -0.06 100.19 -0.06 112.03 -0.08 C122.35 -0.09 132.67 -0.09 142.99 -0.09 C148.45 -0.1 153.92 -0.1 159.38 -0.11 C164.52 -0.11 169.67 -0.11 174.81 -0.11 C176.7 -0.11 178.59 -0.12 180.48 -0.12 C183.05 -0.12 185.62 -0.12 188.2 -0.12 C188.95 -0.12 189.71 -0.13 190.48 -0.13 C193.6 -0.12 196.02 0.01 199 1 C199.05 16.41 199.08 31.82 199.1 47.24 C199.11 54.39 199.13 61.55 199.15 68.71 C199.17 74.94 199.18 81.18 199.19 87.42 C199.19 90.72 199.2 94.03 199.21 97.33 C199.23 101.02 199.23 104.71 199.23 108.4 C199.23 109.49 199.24 110.58 199.25 111.7 C199.23 116.9 199.02 121.13 197 126 C196.69 127.91 196.42 129.83 196.19 131.75 C195.22 137.88 193.14 142.68 190 148 C189.62 148.64 189.24 149.29 188.86 149.95 C187.81 151.62 187.81 151.62 186 154 C185.34 154 184.68 154 184 154 C183.75 154.56 183.5 155.11 183.25 155.69 C181.77 158.42 180.07 160.68 178 163 C177.34 163 176.68 163 176 163 C175.34 164.32 174.68 165.64 174 167 C173.34 167 172.68 167 172 167 C171.79 167.56 171.59 168.11 171.38 168.69 C169.84 171.27 167.98 172.74 165.64 174.58 C163.89 176.1 162.47 177.71 161 179.5 C158.3 182.76 155.26 185.29 152 188 C150.98 189.15 149.98 190.32 149 191.5 C146.3 194.76 143.26 197.29 140 200 C139.02 201.11 138.06 202.23 137.12 203.38 C135.06 205.85 132.96 207.98 130.5 210.06 C126.37 213.58 122.53 217.36 118.69 221.19 C118.08 221.79 117.47 222.4 116.84 223.03 C114.45 225.42 112.22 227.71 110.21 230.43 C109.81 230.95 109.41 231.46 109 232 C108.34 232 107.68 232 107 232 C106.9 232.58 106.79 233.15 106.69 233.75 C105.89 236.35 104.66 237.87 103 240 C102.3 241.32 101.63 242.65 101 244 C100.34 244 99.68 244 99 244 C98.88 245.09 98.75 246.19 98.62 247.31 C98 251 98 251 96 254 C95.53 256.58 95.17 259.08 94.89 261.68 C94.81 262.44 94.72 263.19 94.64 263.97 C93.84 271.69 93.72 279.38 93.74 287.13 C93.74 288.66 93.73 290.19 93.73 291.72 C93.72 295.81 93.72 299.91 93.73 304 C93.74 308.33 93.73 312.65 93.73 316.97 C93.72 324.23 93.73 331.49 93.74 338.74 C93.75 347.08 93.75 355.42 93.74 363.76 C93.73 370.97 93.73 378.18 93.73 385.4 C93.73 389.68 93.73 393.97 93.73 398.25 C93.22 423.25 93.22 423.25 96 448 C96.66 448.66 97.32 449.32 98 450 C98.78 451.73 98.78 451.73 99.5 453.75 C99.76 454.46 100.02 455.17 100.28 455.89 C100.91 457.73 101.46 459.58 102 461.44 C102.33 462.28 102.66 463.13 103 464 C103.99 464.33 104.98 464.66 106 465 C107.29 466.52 108.51 468.09 109.69 469.69 C112.92 473.88 116.12 476.93 120.53 479.84 C121.02 480.23 121.5 480.61 122 481 C122 481.66 122 482.32 122 483 C122.93 483.29 123.86 483.58 124.81 483.88 C128 485 128 485 131 487 C132.48 487.56 133.99 488.08 135.5 488.56 C136.66 488.94 136.66 488.94 137.84 489.32 C138.56 489.54 139.27 489.77 140 490 C140.99 490.33 141.98 490.66 143 491 C159.71 493.32 176.47 493.3 193.3 493.27 C197.05 493.26 200.8 493.27 204.54 493.27 C210.82 493.28 217.11 493.27 223.39 493.26 C230.59 493.25 237.8 493.25 245 493.26 C251.25 493.27 257.5 493.27 263.75 493.27 C267.46 493.27 271.16 493.27 274.86 493.27 C294.47 493.31 294.47 493.31 314.03 492.17 C314.85 492.1 315.68 492.03 316.52 491.96 C321.56 491.44 325.42 490.15 330 488 C331.2 487.67 332.39 487.34 333.62 487 C336.85 486.04 339.17 484.78 342 483 C342.66 483 343.32 483 344 483 C344.33 482.01 344.66 481.02 345 480 C346.52 478.71 348.09 477.49 349.69 476.31 C353.88 473.08 356.93 469.88 359.84 465.47 C360.23 464.98 360.61 464.5 361 464 C361.66 464 362.32 464 363 464 C363.37 462.79 363.37 462.79 363.75 461.56 C364.72 458.79 365.78 456.22 367 453.56 C372.61 441.02 372.15 427.83 372.15 414.33 C372.15 412.79 372.15 411.25 372.16 409.71 C372.16 405.56 372.17 401.42 372.17 397.27 C372.17 394.67 372.17 392.07 372.17 389.47 C372.18 380.36 372.19 371.26 372.19 362.15 C372.18 353.71 372.2 345.27 372.21 336.84 C372.22 329.55 372.23 322.27 372.23 314.98 C372.23 310.65 372.23 306.32 372.24 301.98 C374.05 273.92 374.05 273.92 367 248 C367 246.68 367 245.36 367 244 C366.01 243.67 365.02 243.34 364 243 C362.95 241.03 361.95 239.02 361 237 C360.34 236.34 359.68 235.68 359 235 C359 234.01 359 233.02 359 232 C358.01 231.67 357.02 231.34 356 231 C351 225.53 351 225.53 351 223 C350.4 222.73 349.81 222.46 349.19 222.18 C347.03 221.02 345.65 219.88 343.94 218.14 C343.11 217.3 343.11 217.3 342.27 216.45 C341.43 215.58 341.43 215.58 340.56 214.69 C340 214.12 339.44 213.55 338.87 212.96 C337.24 211.31 335.62 209.66 334 208 C331.4 205.36 328.88 202.9 326 200.56 C323 198 323 198 320.56 195.06 C318.58 192.69 316.85 190.94 314.5 189 C311.24 186.3 308.71 183.26 306 180 C304.85 178.98 303.68 177.98 302.5 177 C299.24 174.3 296.71 171.26 294 168 C292.85 167 291.68 166.02 290.5 165.06 C287.45 162.54 285.32 159.88 283.12 156.6 C281.64 154.49 279.85 152.79 278 151 C273.63 145.93 271.84 140.06 270.57 133.62 C269.97 130.86 269.21 128.17 268.46 125.45 C266.89 119.19 266.6 113.36 266.68 106.93 C266.68 105.79 266.68 104.65 266.68 103.48 C266.69 99.75 266.71 96.03 266.74 92.3 C266.75 89.7 266.76 87.1 266.76 84.5 C266.78 78.38 266.81 72.26 266.84 66.14 C266.91 54.5 266.94 42.86 266.98 31.23 C266.99 27.4 267.01 23.58 267.04 19.76 C267.05 17.43 267.06 15.1 267.07 12.78 C267.07 11.71 267.08 10.64 267.09 9.54 C267.09 8.57 267.1 7.6 267.1 6.6 C267.11 5.33 267.11 5.33 267.11 4.04 C267.13 1.93 267.13 1.93 266 0 C326.01 -0.03 386.01 -0.07 446.02 -0.08 C446.9 -0.08 447.79 -0.09 448.71 -0.09 C467.99 -0.09 487.28 -0.1 506.57 -0.1 C516.03 -0.1 525.49 -0.11 534.95 -0.11 C535.89 -0.11 536.83 -0.11 537.8 -0.11 C568.33 -0.12 598.85 -0.13 629.38 -0.15 C660.74 -0.17 692.11 -0.18 723.47 -0.19 C727.89 -0.19 732.32 -0.19 736.75 -0.19 C737.62 -0.19 738.49 -0.19 739.39 -0.19 C753.43 -0.19 767.47 -0.2 781.52 -0.21 C795.62 -0.23 809.73 -0.23 823.83 -0.23 C832.22 -0.23 840.61 -0.23 849 -0.24 C855.25 -0.25 861.5 -0.25 867.75 -0.24 C870.29 -0.24 872.83 -0.24 875.37 -0.25 C878.8 -0.26 882.24 -0.25 885.67 -0.25 C886.67 -0.25 887.67 -0.26 888.7 -0.26 C889.61 -0.26 890.52 -0.25 891.46 -0.25 C892.64 -0.25 892.64 -0.25 893.84 -0.25 C896.28 0.03 897.86 0.84 900 2 C903.92 2.85 907.76 3.13 911.76 3.29 C917.74 3.54 923.11 4.02 928.71 6.24 C932.69 7.56 936.84 7.95 940.98 8.47 C943.91 8.98 946.27 9.88 949 11 C951.04 11.33 951.04 11.33 953 11.44 C956.7 11.82 958.83 13.02 962 15 C964.65 15.81 967.29 16.4 970 17 C970 17.66 970 18.32 970 19 C971.83 19.15 971.83 19.15 973.69 19.31 C977.47 19.78 979.8 20.89 983 23 C984.98 23.71 986.98 24.39 989 25 C989 25.66 989 26.32 989 27 C990.09 27.1 991.19 27.21 992.31 27.31 C996.18 28.03 996.54 28.32 999 31 C1000.99 31.69 1002.99 32.36 1005 33 C1006.69 33.96 1008.35 34.97 1010 36 C1012.36 37.28 1014.73 38.55 1017.11 39.82 C1019 41 1019 41 1020 43 C1020.89 43.29 1021.77 43.58 1022.69 43.88 C1026.3 45.1 1028.97 46.69 1032 49 C1032 49.66 1032 50.32 1032 51 C1032.97 51.27 1033.94 51.54 1034.94 51.81 C1035.95 52.2 1036.96 52.6 1038 53 C1038.33 53.99 1038.66 54.98 1039 56 C1040.33 56.35 1041.66 56.69 1043 57 C1044.62 58.5 1044.62 58.5 1046 60 C1046.66 60.33 1047.32 60.66 1048 61 C1048 61.66 1048 62.32 1048 63 C1048.7 63.23 1049.4 63.45 1050.12 63.69 C1053.74 65.34 1056.09 67.29 1059 70 C1059 70.66 1059 71.32 1059 72 C1059.56 72.23 1060.11 72.45 1060.69 72.69 C1063.66 74.37 1065.65 76.53 1068 79 C1068.78 79.78 1069.57 80.57 1070.38 81.38 C1071.24 82.24 1072.11 83.11 1073 84 C1073.93 84.89 1073.93 84.89 1074.87 85.8 C1075.51 86.42 1076.15 87.05 1076.81 87.69 C1077.42 88.27 1078.02 88.85 1078.64 89.45 C1080 91 1080 91 1080 93 C1080.99 93.33 1081.98 93.66 1083 94 C1084.73 96.08 1084.73 96.08 1086.62 98.81 C1088.88 102.01 1091.13 105.2 1093.52 108.29 C1094.14 109.1 1094.14 109.1 1094.77 109.92 C1095.95 111.44 1097.13 112.95 1098.31 114.47 C1100 117 1100 117 1100 120 C1100.58 120.23 1101.15 120.45 1101.75 120.69 C1106.29 123.34 1108.21 127.23 1110 132 C1110.97 133.68 1111.98 135.35 1113 137 C1117 143.66 1117 143.66 1117 146 C1117.66 146 1118.32 146 1119 146 C1119.66 148.64 1120.32 151.28 1121 154 C1121.66 154 1122.32 154 1123 154 C1123.58 155.31 1124.17 156.62 1124.75 157.94 C1125.11 158.75 1125.47 159.56 1125.85 160.4 C1126.61 162.12 1127.37 163.84 1128.12 165.57 C1128.47 166.37 1128.82 167.17 1129.19 168 C1129.51 168.74 1129.83 169.49 1130.17 170.25 C1130.87 171.98 1130.87 171.98 1132 173 C1132.53 175.28 1132.96 177.57 1133.4 179.87 C1133.87 182.19 1133.87 182.19 1136 184 C1136.41 186.38 1136.41 186.38 1136.62 189.12 C1136.74 190.49 1136.74 190.49 1136.85 191.88 C1136.9 192.58 1136.95 193.28 1137 194 C1137.66 194 1138.32 194 1139 194 C1139.11 194.64 1139.22 195.28 1139.33 195.94 C1140.07 199.99 1140.8 203.55 1142.5 207.31 C1144.36 211.89 1144.93 216.32 1145.57 221.21 C1145.85 223.95 1145.85 223.95 1147 226 C1147.32 229.37 1147.51 232.75 1147.72 236.13 C1147.68 238.89 1147.68 238.89 1149 240 C1151.04 248.65 1151.29 257.24 1151.27 266.09 C1151.27 267.4 1151.27 268.71 1151.27 270.06 C1151.27 272.81 1151.27 275.56 1151.26 278.31 C1151.25 281.8 1151.26 285.29 1151.27 288.78 C1151.28 292.15 1151.27 295.53 1151.27 298.91 C1151.27 300.14 1151.27 301.38 1151.28 302.65 C1151.24 310.29 1150.51 317.51 1149 325 C1148.67 325 1148.34 325 1148 325 C1147.95 326.01 1147.9 327.03 1147.85 328.07 C1147.78 329.42 1147.7 330.77 1147.62 332.12 C1147.59 332.79 1147.56 333.46 1147.53 334.14 C1147.28 338.42 1146.43 341.98 1145 346 C1144.8 347.49 1144.65 349 1144.56 350.5 C1144.19 354.6 1142.84 357.31 1141 361 C1140.64 363.35 1140.44 365.67 1140.31 368.05 C1140 370 1140 370 1138 372 C1137.39 373.85 1136.86 375.73 1136.38 377.62 C1136.11 378.63 1135.85 379.63 1135.59 380.66 C1135.3 381.82 1135.3 381.82 1135 383 C1134.34 383 1133.68 383 1133 383 C1132.94 383.89 1132.94 383.89 1132.89 384.79 C1132.48 389.71 1131.8 392.85 1129 397 C1128.47 398.58 1128.47 398.58 1127.94 400.19 C1127 403 1127 403 1125 405 C1124.67 405.99 1124.34 406.98 1124 408 C1123 411 1123 411 1121 413 C1120.67 414.18 1120.34 415.35 1120 416.56 C1119.67 417.7 1119.34 418.83 1119 420 C1118.34 420.33 1117.68 420.66 1117 421 C1116.27 422.98 1115.6 424.98 1115 427 C1114.34 427 1113.68 427 1113 427 C1112.34 428.98 1111.68 430.96 1111 433 C1110.34 433 1109.68 433 1109 433 C1108.71 434.13 1108.42 435.27 1108.12 436.44 C1107.75 437.61 1107.38 438.79 1107 440 C1106.34 440.33 1105.68 440.66 1105 441 C1104.67 441.66 1104.34 442.32 1104 443 C1103 445 1103 445 1101 446 C1100.56 446.88 1100.13 447.76 1099.68 448.66 C1097.87 452.27 1095.63 455.3 1093.12 458.44 C1090.4 461.91 1087.69 465.36 1085.19 469 C1083 471.99 1080.77 474.53 1078 477 C1077.34 477 1076.68 477 1076 477 C1075.34 478.32 1074.68 479.64 1074 481 C1073.34 481 1072.68 481 1072 481 C1071.79 481.56 1071.59 482.11 1071.38 482.69 C1069.83 485.29 1067.92 486.86 1065.56 488.72 C1063.81 490.11 1063.81 490.11 1061.69 492.38 C1051.83 502 1051.83 502 1048 502 C1047.67 502.99 1047.34 503.98 1047 505 C1045.67 505.33 1044.33 505.67 1043 506 C1042.67 506.99 1042.34 507.98 1042 509 C1039.82 510.5 1039.82 510.5 1037.12 512 C1033.97 513.77 1031.5 515.4 1029 518 C1027.44 518.92 1025.87 519.83 1024.29 520.7 C1021.31 522.39 1018.41 524.2 1015.5 526 C1009.13 529.93 1002.76 533.69 996.04 537 C994 538 991.97 539.03 989.94 540.06 C984.14 542.95 978.29 545.31 972.11 547.25 C969.98 547.96 969.98 547.96 967.98 549.03 C965.39 550.3 962.81 550.82 960 551.44 C957.96 551.94 957.96 551.94 956.06 553 C953.72 554.14 951.62 554.56 949.06 555 C946.34 555.5 944.06 555.98 941.5 557.06 C938.94 558.02 936.96 558.23 934.25 558.44 C930.85 558.71 928.1 559.23 924.94 560.5 C919.8 562.4 914.63 562.47 909.2 562.62 C905.78 562.73 902.98 563.01 899.66 563.96 C888.63 567.08 876.49 566.21 865.11 566.32 C863.2 566.34 861.29 566.36 859.38 566.38 C854.38 566.43 849.38 566.48 844.38 566.53 C839.26 566.58 834.15 566.64 829.03 566.69 C819.02 566.8 809.01 566.9 799 567 C799 567.84 799.01 568.67 799.01 569.53 C799.05 577.56 799.08 585.58 799.1 593.61 C799.11 597.73 799.13 601.85 799.15 605.98 C799.24 622.59 799.21 639.16 798.18 655.74 C798.11 656.94 798.04 658.14 797.97 659.38 C797.53 665.53 796.66 671.08 794.68 676.92 C793.72 679.86 793.32 682.81 792.94 685.88 C792.45 689.75 791.81 692.57 790 696 C789.43 698.28 789 700.57 788.56 702.88 C788 705 788 705 786 708 C785.41 710.3 784.99 712.61 784.56 714.94 C784 717 784 717 782 719 C781.67 720.15 781.34 721.31 781 722.5 C780 726 780 726 778 728 C777.27 729.67 776.53 731.34 775.84 733.03 C772.18 741.65 767.76 751.47 761 758 C759.89 759.54 758.81 761.11 757.75 762.69 C754.51 767.38 751.16 772.07 747 776 C746.34 776 745.68 776 745 776 C744.34 777.32 743.68 778.64 743 780 C742.34 780 741.68 780 741 780 C740.96 780.56 740.92 781.11 740.88 781.69 C739.56 785.17 736.87 786.72 734 789 C733.34 789.99 732.68 790.98 732 792 C731.01 792 730.02 792 729 792 C728.79 792.56 728.59 793.11 728.38 793.69 C726.48 796.87 723.88 798.71 721 801 C720.48 801.52 719.97 802.03 719.44 802.56 C716 806 712.16 808.53 708 811 C706.23 812.29 704.48 813.59 702.75 814.91 C701 816 701 816 698.91 816.46 C696.61 816.89 696.61 816.89 695 820 C693.03 821.06 691.02 822.04 689 823 C687.52 823.83 686.04 824.66 684.56 825.5 C680.79 827.6 677.01 829.38 673 831 C672.2 831.33 671.41 831.66 670.59 832 C666.81 833.55 663.13 834.96 659.19 836.06 C656.03 836.83 656.03 836.83 653.69 838.49 C650.64 840.2 648.2 840.66 644.75 841.12 C641.06 841.35 641.06 841.35 638 843 C635.65 843.24 633.29 843.41 630.94 843.56 C629.65 843.65 628.36 843.73 627.03 843.82 C626.03 843.88 625.03 843.94 624 844 C624 844.33 624 844.66 624 845 C618.34 846.6 613.36 847.29 607.49 847.25 C606.67 847.25 605.85 847.26 605 847.26 C602.25 847.27 599.5 847.26 596.76 847.25 C594.76 847.26 592.77 847.26 590.77 847.26 C585.3 847.27 579.83 847.27 574.35 847.26 C568.45 847.26 562.55 847.26 556.64 847.27 C545.74 847.28 534.85 847.28 523.95 847.27 C513.88 847.27 503.82 847.27 493.75 847.27 C492.75 847.27 492.75 847.27 491.72 847.27 C489.01 847.27 486.3 847.27 483.59 847.27 C458.16 847.28 432.73 847.27 407.3 847.26 C384.71 847.25 362.12 847.25 339.52 847.26 C314.14 847.27 288.75 847.28 263.37 847.27 C260.66 847.27 257.96 847.27 255.25 847.27 C254.25 847.27 254.25 847.27 253.23 847.27 C243.17 847.26 233.11 847.27 223.05 847.27 C211.61 847.28 200.17 847.28 188.73 847.27 C182.89 847.26 177.06 847.26 171.22 847.27 C165.88 847.27 160.53 847.27 155.19 847.26 C153.26 847.26 151.32 847.26 149.39 847.26 C146.76 847.27 144.13 847.26 141.51 847.25 C140.75 847.26 140 847.26 139.23 847.27 C134.19 847.23 129.85 846.37 125 845 C125 844.67 125 844.34 125 844 C124.06 843.95 123.12 843.9 122.15 843.85 C120.9 843.78 119.66 843.7 118.38 843.62 C116.53 843.52 116.53 843.52 114.65 843.41 C111.14 843.02 108.3 842.2 105 841 C103.57 840.66 102.13 840.35 100.69 840.06 C95.33 838.92 89.92 837.46 85 835 C85 834.34 85 833.68 85 833 C83.17 832.85 83.17 832.85 81.31 832.69 C77.5 832.36 75.23 831.02 72 829 C69.69 827.84 67.39 826.69 65.06 825.56 C60.45 823.32 56.24 820.89 52 818 C51.01 817.5 50.02 817.01 49 816.5 C45.79 814.89 42.89 813.13 40 811 C40 810.34 40 809.68 40 809 C38.02 808.34 36.04 807.68 34 807 C34 806.34 34 805.68 34 805 C33.28 804.77 32.56 804.55 31.81 804.31 C28.44 802.74 26.44 800.79 24 798 C24 797.34 24 796.68 24 796 C23.44 795.76 22.88 795.51 22.3 795.26 C15.12 791.33 8.98 784.42 4 778 C4 777.34 4 776.68 4 776 C2.68 775.34 1.36 774.68 0 774 C0 773.34 0 772.68 0 772 C-0.57 771.78 -1.15 771.56 -1.74 771.34 C-4.73 769.57 -6.18 767.39 -8.19 764.56 C-8.88 763.59 -9.58 762.63 -10.29 761.63 C-12 759 -12 759 -13 756 C-13.99 755.34 -14.98 754.68 -16 754 C-17.04 752.02 -18.03 750.02 -19 748 C-20.02 746.55 -20.02 746.55 -21.06 745.06 C-23.23 741.64 -24.06 738.9 -25 735 C-25.66 735 -26.32 735 -27 735 C-27.19 734.45 -27.39 733.89 -27.59 733.32 C-27.85 732.6 -28.11 731.87 -28.38 731.12 C-28.63 730.41 -28.89 729.69 -29.15 728.95 C-29.94 726.82 -29.94 726.82 -32 725 C-32.67 722.67 -33.33 720.33 -34 718 C-34.66 717.34 -35.32 716.68 -36 716 C-36.56 713.94 -36.56 713.94 -37 711.56 C-37.6 708.29 -38.09 706.87 -40 704 C-40.39 702.37 -40.72 700.72 -41 699.06 C-41.43 696.5 -41.79 694.39 -43 692.08 C-44.34 689.3 -44.6 686.68 -45 683.62 C-45.43 680.32 -45.87 677.37 -47 674.23 C-48.09 670.72 -48.38 667.66 -48.56 663.99 C-48.64 662.68 -48.71 661.36 -48.79 660 C-48.9 657.93 -49 655.86 -49.1 653.79 C-49.21 651.77 -49.32 649.76 -49.44 647.74 C-49.5 646.54 -49.56 645.35 -49.62 644.11 C-49.8 641.1 -49.8 641.1 -51.01 639.07 C-52.1 636.78 -52.25 635.36 -52.25 632.84 C-52.25 632.01 -52.26 631.19 -52.26 630.33 C-52.26 629.43 -52.25 628.52 -52.25 627.59 C-52.25 626.62 -52.25 625.65 -52.25 624.65 C-52.26 621.38 -52.25 618.11 -52.24 614.84 C-52.24 612.48 -52.24 610.12 -52.25 607.77 C-52.25 602.62 -52.25 597.48 -52.24 592.34 C-52.23 584.7 -52.23 577.05 -52.23 569.41 C-52.23 556.55 -52.22 543.69 -52.21 530.83 C-52.2 518.09 -52.19 505.36 -52.19 492.62 C-52.19 491.83 -52.19 491.04 -52.19 490.23 C-52.19 486.21 -52.19 482.19 -52.19 478.17 C-52.18 449.69 -52.17 421.22 -52.15 392.74 C-52.13 365.07 -52.12 337.41 -52.11 309.74 C-52.11 308.89 -52.11 308.03 -52.11 307.15 C-52.11 298.59 -52.1 290.03 -52.1 281.47 C-52.1 264.03 -52.09 246.58 -52.08 229.14 C-52.08 228.34 -52.08 227.54 -52.08 226.71 C-52.07 173.14 -52.03 119.57 -52 66 C-51.34 66 -50.68 66 -50 66 C-49.96 65.45 -49.91 64.89 -49.86 64.32 C-49.65 61.79 -49.42 59.27 -49.19 56.75 C-49.08 55.44 -49.08 55.44 -48.97 54.11 C-48.24 46.41 -48.24 46.41 -45 43 C-44.32 41 -43.66 39 -43 37 C-41.74 34.3 -40.38 31.64 -39 29 C-38.34 29 -37.68 29 -37 29 C-36.75 28.44 -36.51 27.89 -36.25 27.31 C-30.67 16.99 -19.7 9.28 -9 5 C-8.67 4.67 -8.34 4.34 -8 4 C-6.32 3.61 -4.63 3.26 -2.94 2.94 C-2.02 2.76 -1.1 2.58 -0.15 2.4 C0.56 2.27 1.27 2.14 2 2 C1.34 1.34 0.68 0.68 0 0 Z M800 143 C799.98 178.53 799.96 214.05 799.95 249.58 C799.95 253.77 799.95 257.96 799.95 262.15 C799.94 262.98 799.94 263.81 799.94 264.67 C799.94 278.2 799.93 291.72 799.92 305.25 C799.91 319.11 799.91 332.98 799.91 346.85 C799.9 355.41 799.9 363.97 799.89 372.54 C799.89 378.4 799.89 384.26 799.89 390.13 C799.89 393.52 799.89 396.9 799.88 400.29 C799.88 403.96 799.88 407.62 799.88 411.29 C799.88 412.37 799.87 413.45 799.87 414.57 C799.87 415.54 799.87 416.52 799.88 417.52 C799.88 418.37 799.88 419.21 799.88 420.09 C799.79 422.01 799.79 422.01 801 423 C803.37 423.11 805.71 423.16 808.08 423.16 C808.82 423.17 809.57 423.17 810.33 423.18 C812.8 423.19 815.27 423.2 817.74 423.2 C819.46 423.21 821.18 423.21 822.89 423.22 C826.51 423.23 830.13 423.24 833.74 423.24 C838.35 423.25 842.95 423.27 847.56 423.3 C851.11 423.32 854.67 423.32 858.23 423.32 C859.93 423.33 861.62 423.33 863.32 423.35 C872.04 423.41 880.01 423.27 888.43 420.69 C891.29 419.92 893.99 419.68 896.94 419.5 C901.19 419.2 903.39 418.31 907 416 C909.55 415.4 912.1 414.94 914.7 414.53 C917.26 414.08 917.26 414.08 920 412 C921.18 411.67 922.35 411.34 923.56 411 C927.03 410.29 927.03 410.29 929 408 C930.66 407.32 932.33 406.65 934 406 C935.4 405.35 936.8 404.68 938.19 404 C938.86 403.67 939.54 403.34 940.23 403 C942.17 402.01 942.17 402.01 944 400 C945.14 399.6 945.14 399.6 946.31 399.19 C948.97 398.01 950.44 396.73 952.41 394.63 C954.55 392.43 956.8 390.38 959.06 388.31 C959.9 387.55 960.74 386.78 961.6 385.99 C964 384 964 384 966.11 382.98 C968.53 381.72 969.65 380.2 971.25 378 C971.77 377.3 972.29 376.6 972.83 375.88 C974.18 374.09 974.18 374.09 974 372 C974.58 371.76 975.16 371.52 975.76 371.28 C982.78 367.28 987.03 358.54 990.62 351.59 C991.87 349.25 993.22 347.08 994.69 344.88 C997.98 339.71 999.41 334.09 1001.06 328.25 C1003.22 320.78 1003.22 320.78 1005 319 C1005.45 315.51 1005.82 312.02 1006.16 308.52 C1006.24 307.78 1006.32 307.04 1006.4 306.27 C1006.47 305.6 1006.54 304.92 1006.61 304.23 C1007 302 1007 302 1008.02 299.11 C1009.04 295.88 1009.26 293.32 1009.27 289.94 C1009.27 288.81 1009.27 287.68 1009.27 286.52 C1009.27 285.36 1009.26 284.2 1009.25 283 C1009.26 281.84 1009.27 280.67 1009.27 279.48 C1009.27 278.35 1009.27 277.22 1009.27 276.06 C1009.26 274.53 1009.26 274.53 1009.26 272.97 C1008.98 269.72 1008.09 267.07 1007 264 C1006.54 260.67 1006.18 257.36 1005.88 254.01 C1005.36 249.14 1004.03 245.46 1002 241 C1001.84 239.8 1001.67 238.61 1001.5 237.38 C1000.97 233.8 999.96 231.98 998 229 C997.7 228.22 997.39 227.45 997.08 226.64 C996 223.99 994.71 221.74 993.19 219.31 C991.06 215.84 989.14 212.36 987.38 208.69 C984.51 202.84 980.8 198.42 976 194 C975.34 194 974.68 194 974 194 C973.77 193.3 973.55 192.6 973.31 191.88 C970.38 185.45 965.81 181.73 960 178 C959.34 178 958.68 178 958 178 C957.79 177.44 957.59 176.89 957.38 176.31 C956.03 174.05 954.95 173 952.94 171.38 C950 169 950 169 949 167 C947.68 166.31 946.36 165.62 945.02 164.98 C942.43 163.72 939.91 162.37 937.38 161 C936.45 160.5 935.53 160.01 934.59 159.5 C932 158 932 158 929.93 156.41 C927.87 154.91 926.12 154.19 923.69 153.44 C922.9 153.19 922.11 152.94 921.3 152.68 C919.33 152.1 917.35 151.55 915.38 151 C912 150 912 150 908.86 148.54 C904.63 146.7 900.36 146.03 895.81 145.38 C894.24 145.13 892.66 144.89 891.08 144.65 C890.05 144.5 890.05 144.5 889 144.34 C887 144 887 144 885.38 143.49 C881.91 142.78 878.46 142.87 874.93 142.89 C874.12 142.89 873.31 142.89 872.47 142.89 C869.8 142.89 867.13 142.89 864.45 142.9 C862.6 142.9 860.74 142.91 858.89 142.91 C854.01 142.91 849.13 142.92 844.25 142.93 C839.27 142.94 834.29 142.95 829.31 142.95 C819.54 142.96 809.77 142.98 800 143 Z M1147 240 C1147 242.97 1147 245.94 1147 249 C1147.33 249 1147.66 249 1148 249 C1148 246.03 1148 243.06 1148 240 C1147.67 240 1147.34 240 1147 240 Z M1147 313 C1147 315.31 1147 317.62 1147 320 C1147.33 320 1147.66 320 1148 320 C1148 317.69 1148 315.38 1148 313 C1147.67 313 1147.34 313 1147 313 Z " fill="#192F4E" transform="translate(92,56)"/>
<path d="M0 0 C60.01 -0.03 120.01 -0.07 180.02 -0.08 C180.9 -0.08 181.79 -0.09 182.71 -0.09 C201.99 -0.09 221.28 -0.1 240.57 -0.1 C250.03 -0.1 259.49 -0.11 268.95 -0.11 C269.89 -0.11 270.83 -0.11 271.8 -0.11 C302.33 -0.12 332.85 -0.13 363.38 -0.15 C394.74 -0.17 426.11 -0.18 457.47 -0.19 C461.89 -0.19 466.32 -0.19 470.75 -0.19 C471.62 -0.19 472.49 -0.19 473.39 -0.19 C487.43 -0.19 501.47 -0.2 515.52 -0.21 C529.62 -0.23 543.73 -0.23 557.83 -0.23 C566.22 -0.23 574.61 -0.23 583 -0.24 C589.25 -0.25 595.5 -0.25 601.75 -0.24 C604.29 -0.24 606.83 -0.24 609.37 -0.25 C612.8 -0.26 616.24 -0.25 619.67 -0.25 C620.67 -0.25 621.67 -0.26 622.7 -0.26 C623.61 -0.26 624.52 -0.25 625.46 -0.25 C626.64 -0.25 626.64 -0.25 627.84 -0.25 C630.28 0.03 631.85 0.85 634 2 C635.99 2.38 637.99 2.73 640 3 C640 3.33 640 3.66 640 4 C429.13 4 218.26 4 1 4 C0.67 2.68 0.34 1.36 0 0 Z " fill="#061031" transform="translate(358,56)"/>
<path d="M0 0 C1.23 -0 1.23 -0 2.48 -0 C5.23 -0.01 7.99 -0 10.74 -0 C12.73 -0 14.72 -0 16.71 -0.01 C22.18 -0.01 27.66 -0.01 33.13 -0 C39.03 -0 44.93 -0.01 50.84 -0.01 C61.73 -0.01 72.63 -0.01 83.53 -0.01 C93.59 -0.01 103.66 -0.01 113.73 -0.01 C114.73 -0.01 114.73 -0.01 115.75 -0.01 C118.46 -0.01 121.17 -0.01 123.89 -0.01 C149.32 -0.01 174.75 -0.01 200.19 -0 C222.78 0 245.37 0 267.96 -0 C293.34 -0.01 318.73 -0.01 344.11 -0.01 C346.81 -0.01 349.52 -0.01 352.23 -0.01 C353.23 -0.01 353.23 -0.01 354.25 -0.01 C364.31 -0.01 374.36 -0.01 384.42 -0.01 C395.86 -0.01 407.31 -0.01 418.75 -0.01 C424.59 -0 430.42 -0 436.26 -0.01 C441.61 -0.01 446.95 -0.01 452.3 -0 C454.23 -0 456.16 -0 458.1 -0 C475.9 -0.03 475.9 -0.03 484.75 1.13 C484.75 1.46 484.75 1.79 484.75 2.13 C479.09 3.73 474.1 4.41 468.24 4.38 C467.01 4.38 467.01 4.38 465.75 4.39 C463 4.39 460.25 4.39 457.5 4.38 C455.51 4.38 453.51 4.39 451.52 4.39 C446.05 4.4 440.57 4.39 435.1 4.39 C429.2 4.38 423.29 4.39 417.39 4.4 C406.49 4.4 395.59 4.4 384.7 4.4 C374.63 4.39 364.56 4.39 354.5 4.39 C353.49 4.39 353.49 4.39 352.47 4.39 C349.76 4.39 347.05 4.4 344.34 4.4 C318.91 4.4 293.48 4.4 268.04 4.39 C245.45 4.38 222.86 4.38 200.27 4.39 C174.89 4.4 149.5 4.4 124.12 4.4 C121.41 4.39 118.7 4.39 116 4.39 C115 4.39 115 4.39 113.98 4.39 C103.92 4.39 93.86 4.39 83.8 4.4 C72.36 4.4 60.92 4.4 49.48 4.39 C43.64 4.39 37.8 4.38 31.96 4.39 C26.62 4.4 21.28 4.39 15.94 4.38 C14 4.38 12.07 4.38 10.13 4.39 C7.51 4.39 4.88 4.39 2.25 4.38 C1.5 4.38 0.75 4.39 -0.03 4.39 C-5.06 4.36 -9.41 3.5 -14.25 2.13 C-14.25 1.8 -14.25 1.47 -14.25 1.13 C-9.48 0.18 -4.85 -0.02 0 0 Z " fill="#061031" transform="translate(231.25354385375977,898.8741588592529)"/>
<path d="M0 0 C0.99 0 1.98 0 3 0 C3 189.75 3 379.5 3 575 C-0.38 570.5 -0.38 570.5 -0.37 566.84 C-0.38 566.01 -0.39 565.19 -0.39 564.33 C-0.38 562.98 -0.38 562.98 -0.37 561.59 C-0.37 560.14 -0.37 560.14 -0.38 558.65 C-0.39 555.38 -0.37 552.11 -0.36 548.84 C-0.36 546.48 -0.36 544.12 -0.37 541.77 C-0.37 536.62 -0.37 531.48 -0.36 526.34 C-0.34 518.7 -0.34 511.05 -0.34 503.41 C-0.35 490.55 -0.34 477.69 -0.32 464.83 C-0.3 452.09 -0.29 439.36 -0.28 426.62 C-0.28 425.83 -0.28 425.04 -0.28 424.23 C-0.28 420.21 -0.28 416.19 -0.28 412.17 C-0.27 383.69 -0.25 355.22 -0.23 326.74 C-0.2 299.07 -0.18 271.41 -0.16 243.74 C-0.16 242.89 -0.16 242.03 -0.16 241.15 C-0.16 232.59 -0.16 224.03 -0.15 215.47 C-0.14 198.03 -0.14 180.58 -0.13 163.14 C-0.13 162.34 -0.13 161.54 -0.13 160.71 C-0.1 107.14 -0.05 53.57 0 0 Z " fill="#081334" transform="translate(40,122)"/>
<path d="M0 0 C25.5 -0.02 51.01 -0.04 76.51 -0.05 C88.35 -0.06 100.19 -0.06 112.03 -0.08 C122.35 -0.09 132.67 -0.09 142.99 -0.09 C148.45 -0.1 153.92 -0.1 159.38 -0.11 C164.52 -0.11 169.67 -0.11 174.81 -0.11 C176.7 -0.11 178.59 -0.12 180.48 -0.12 C183.05 -0.12 185.62 -0.12 188.2 -0.12 C188.95 -0.12 189.71 -0.13 190.48 -0.13 C193.6 -0.12 196.02 0.01 199 1 C199 1.99 199 2.98 199 4 C133 4 67 4 -1 4 C-0.01 3.34 0.98 2.68 2 2 C1.34 1.34 0.68 0.68 0 0 Z " fill="#061031" transform="translate(92,56)"/>
<path d="M0 0 C0.33 0 0.66 0 1 0 C2.76 8.76 3.29 17.17 3.27 26.09 C3.27 27.4 3.27 28.71 3.27 30.06 C3.27 32.81 3.27 35.56 3.26 38.31 C3.25 41.8 3.26 45.29 3.27 48.78 C3.28 52.15 3.27 55.53 3.27 58.91 C3.27 60.14 3.27 61.38 3.28 62.65 C3.24 70.29 2.51 77.51 1 85 C-1.28 81.37 -1.25 78.31 -1.24 74.08 C-1.24 73.39 -1.25 72.7 -1.25 71.99 C-1.25 69.72 -1.24 67.45 -1.23 65.18 C-1.23 63.59 -1.23 62 -1.23 60.41 C-1.23 57.09 -1.22 53.76 -1.21 50.43 C-1.19 46.19 -1.18 41.94 -1.19 37.69 C-1.19 34.41 -1.18 31.14 -1.17 27.86 C-1.17 26.29 -1.17 24.73 -1.17 23.16 C-1.16 15.38 -1.09 7.72 0 0 Z " fill="#050F30" transform="translate(1240,296)"/>
<path d="M0 0 C0.33 0 0.66 0 1 0 C1 1.98 1 3.96 1 6 C0.67 6 0.34 6 0 6 C0 4.02 0 2.04 0 0 Z " fill="#FAFDFF" transform="translate(1244,337)"/>
<path d="" fill="#1A304F" transform="translate(0,0)"/>
</svg>
